G04 #@! TF.GenerationSoftware,KiCad,Pcbnew,7.0.9*
G04 #@! TF.CreationDate,2024-03-14T12:42:54+01:00*
G04 #@! TF.ProjectId,Apothecary - DSP Development Board,41706f74-6865-4636-9172-79202d204453,rev?*
G04 #@! TF.SameCoordinates,Original*
G04 #@! TF.FileFunction,Soldermask,Bot*
G04 #@! TF.FilePolarity,Negative*
%FSLAX46Y46*%
G04 Gerber Fmt 4.6, Leading zero omitted, Abs format (unit mm)*
G04 Created by KiCad (PCBNEW 7.0.9) date 2024-03-14 12:42:54*
%MOMM*%
%LPD*%
G01*
G04 APERTURE LIST*
G04 Aperture macros list*
%AMRoundRect*
0 Rectangle with rounded corners*
0 $1 Rounding radius*
0 $2 $3 $4 $5 $6 $7 $8 $9 X,Y pos of 4 corners*
0 Add a 4 corners polygon primitive as box body*
4,1,4,$2,$3,$4,$5,$6,$7,$8,$9,$2,$3,0*
0 Add four circle primitives for the rounded corners*
1,1,$1+$1,$2,$3*
1,1,$1+$1,$4,$5*
1,1,$1+$1,$6,$7*
1,1,$1+$1,$8,$9*
0 Add four rect primitives between the rounded corners*
20,1,$1+$1,$2,$3,$4,$5,0*
20,1,$1+$1,$4,$5,$6,$7,0*
20,1,$1+$1,$6,$7,$8,$9,0*
20,1,$1+$1,$8,$9,$2,$3,0*%
G04 Aperture macros list end*
%ADD10O,1.800000X2.800000*%
%ADD11C,1.250000*%
%ADD12O,3.402400X1.777400*%
%ADD13C,4.600000*%
%ADD14C,1.800000*%
%ADD15C,2.000000*%
%ADD16C,1.700000*%
%ADD17C,4.700000*%
%ADD18C,1.600000*%
%ADD19C,3.400000*%
%ADD20C,2.900000*%
%ADD21C,0.990600*%
%ADD22C,2.374900*%
%ADD23R,2.000000X4.000000*%
%ADD24O,2.000000X3.300000*%
%ADD25O,3.500000X2.000000*%
%ADD26R,2.600000X2.600000*%
%ADD27C,2.600000*%
%ADD28C,3.000000*%
%ADD29RoundRect,0.250000X-0.475000X0.250000X-0.475000X-0.250000X0.475000X-0.250000X0.475000X0.250000X0*%
%ADD30RoundRect,0.140000X-0.140000X-0.170000X0.140000X-0.170000X0.140000X0.170000X-0.140000X0.170000X0*%
%ADD31C,1.000000*%
%ADD32RoundRect,0.140000X0.140000X0.170000X-0.140000X0.170000X-0.140000X-0.170000X0.140000X-0.170000X0*%
%ADD33R,0.458000X1.510000*%
%ADD34RoundRect,0.250000X-0.250000X-0.475000X0.250000X-0.475000X0.250000X0.475000X-0.250000X0.475000X0*%
%ADD35RoundRect,0.140000X0.170000X-0.140000X0.170000X0.140000X-0.170000X0.140000X-0.170000X-0.140000X0*%
G04 APERTURE END LIST*
D10*
X115134422Y-140384422D03*
X107234422Y-142384422D03*
X109634422Y-140384422D03*
D11*
X191600000Y-81250000D03*
X191600000Y-76750000D03*
D12*
X191600000Y-84850000D03*
X191600000Y-73150000D03*
D13*
X111700000Y-101925000D03*
X111700000Y-91925000D03*
D14*
X108400000Y-94425000D03*
X108400000Y-96925000D03*
X108400000Y-99425000D03*
D15*
X200200000Y-97450000D03*
X206200000Y-109450000D03*
X200200000Y-109450000D03*
X206200000Y-97450000D03*
D16*
X201950000Y-107450000D03*
X201950000Y-103450000D03*
X201950000Y-99450000D03*
D17*
X205750000Y-153750000D03*
D18*
X204920000Y-126940000D03*
X199840000Y-134560000D03*
D19*
X191580000Y-126940000D03*
D20*
X195395000Y-130750000D03*
X191580000Y-130750000D03*
X195395000Y-137730000D03*
D19*
X191580000Y-134560000D03*
D20*
X201750000Y-122500000D03*
D13*
X111700000Y-65650000D03*
X111700000Y-55650000D03*
D14*
X108400000Y-58150000D03*
X108400000Y-60650000D03*
X108400000Y-63150000D03*
X117400000Y-128450001D03*
X117400000Y-130950001D03*
X117400000Y-133450001D03*
X114900000Y-128450001D03*
X114900000Y-130950001D03*
X114900000Y-133450001D03*
D17*
X107750000Y-25750000D03*
X205750000Y-25750000D03*
D13*
X111700000Y-85250000D03*
X111700000Y-75250000D03*
D14*
X108400000Y-77750000D03*
X108400000Y-80250000D03*
X108400000Y-82750000D03*
D13*
X111700000Y-118450000D03*
X111700000Y-108450000D03*
D14*
X108400000Y-110950000D03*
X108400000Y-113450000D03*
X108400000Y-115950000D03*
D21*
X163728500Y-73037500D03*
D22*
X160172500Y-74942500D03*
X165252500Y-74942500D03*
D21*
X161696500Y-73037500D03*
X162712500Y-78117500D03*
D22*
X160172500Y-78117500D03*
X165252500Y-78117500D03*
D18*
X206900000Y-47500000D03*
D23*
X197900000Y-47500000D03*
D24*
X203900000Y-47500000D03*
D25*
X204900000Y-52000000D03*
X204900000Y-43000000D03*
D26*
X183750000Y-47455000D03*
D27*
X188750000Y-47455000D03*
D28*
X109200000Y-49980000D03*
X109200000Y-33750000D03*
X121900000Y-49980000D03*
X121900000Y-33750000D03*
D17*
X107750000Y-153750000D03*
D29*
X170300000Y-92449999D03*
X170300000Y-94349999D03*
D30*
X179540000Y-94424999D03*
X180500000Y-94424999D03*
D31*
X201750000Y-151000000D03*
D32*
X175700000Y-94925000D03*
X174740000Y-94925000D03*
X185459999Y-109674998D03*
X184499999Y-109674998D03*
D30*
X181944998Y-109674999D03*
X182904998Y-109674999D03*
D31*
X202000000Y-28750000D03*
D33*
X184499999Y-108074999D03*
X183699999Y-108074999D03*
X182899999Y-108074999D03*
X182099999Y-108074999D03*
X181299999Y-108074999D03*
X180499999Y-108074999D03*
X179699999Y-108074999D03*
X178899999Y-108074999D03*
X178099999Y-108074999D03*
X177299999Y-108074999D03*
X176499999Y-108074999D03*
X175699999Y-108074999D03*
X174899999Y-108074999D03*
X174099999Y-108074999D03*
X173299999Y-108074999D03*
X172499999Y-108074999D03*
X171699999Y-108074999D03*
X170899999Y-108074999D03*
X170099999Y-108074999D03*
X169299999Y-108074999D03*
X168499999Y-108074999D03*
X167699999Y-108074999D03*
X166899999Y-108074999D03*
X166099999Y-108074999D03*
X165299999Y-108074999D03*
X164499999Y-108074999D03*
X163699999Y-108074999D03*
X163699999Y-96574999D03*
X164499999Y-96574999D03*
X165299999Y-96574999D03*
X166099999Y-96574999D03*
X166899999Y-96574999D03*
X167699999Y-96574999D03*
X168499999Y-96574999D03*
X169299999Y-96574999D03*
X170099999Y-96574999D03*
X170899999Y-96574999D03*
X171699999Y-96574999D03*
X172499999Y-96574999D03*
X173299999Y-96574999D03*
X174099999Y-96574999D03*
X174899999Y-96574999D03*
X175699999Y-96574999D03*
X176499999Y-96574999D03*
X177299999Y-96574999D03*
X178099999Y-96574999D03*
X178899999Y-96574999D03*
X179699999Y-96574999D03*
X180499999Y-96574999D03*
X181299999Y-96574999D03*
X182099999Y-96574999D03*
X182899999Y-96574999D03*
X183699999Y-96574999D03*
X184499999Y-96574999D03*
D34*
X159700000Y-108650000D03*
X161600000Y-108650000D03*
D32*
X175059999Y-109674999D03*
X174099999Y-109674999D03*
D35*
X163700001Y-110585000D03*
X163700001Y-109625000D03*
D30*
X177139999Y-109724999D03*
X178099999Y-109724999D03*
D31*
X111500000Y-28750000D03*
M02*
