G04 #@! TF.GenerationSoftware,KiCad,Pcbnew,7.0.9*
G04 #@! TF.CreationDate,2024-03-14T12:42:54+01:00*
G04 #@! TF.ProjectId,Apothecary - DSP Development Board,41706f74-6865-4636-9172-79202d204453,rev?*
G04 #@! TF.SameCoordinates,Original*
G04 #@! TF.FileFunction,Paste,Bot*
G04 #@! TF.FilePolarity,Positive*
%FSLAX46Y46*%
G04 Gerber Fmt 4.6, Leading zero omitted, Abs format (unit mm)*
G04 Created by KiCad (PCBNEW 7.0.9) date 2024-03-14 12:42:54*
%MOMM*%
%LPD*%
G01*
G04 APERTURE LIST*
G04 Aperture macros list*
%AMRoundRect*
0 Rectangle with rounded corners*
0 $1 Rounding radius*
0 $2 $3 $4 $5 $6 $7 $8 $9 X,Y pos of 4 corners*
0 Add a 4 corners polygon primitive as box body*
4,1,4,$2,$3,$4,$5,$6,$7,$8,$9,$2,$3,0*
0 Add four circle primitives for the rounded corners*
1,1,$1+$1,$2,$3*
1,1,$1+$1,$4,$5*
1,1,$1+$1,$6,$7*
1,1,$1+$1,$8,$9*
0 Add four rect primitives between the rounded corners*
20,1,$1+$1,$2,$3,$4,$5,0*
20,1,$1+$1,$4,$5,$6,$7,0*
20,1,$1+$1,$6,$7,$8,$9,0*
20,1,$1+$1,$8,$9,$2,$3,0*%
G04 Aperture macros list end*
%ADD10RoundRect,0.250000X-0.475000X0.250000X-0.475000X-0.250000X0.475000X-0.250000X0.475000X0.250000X0*%
%ADD11RoundRect,0.140000X-0.140000X-0.170000X0.140000X-0.170000X0.140000X0.170000X-0.140000X0.170000X0*%
%ADD12RoundRect,0.140000X0.140000X0.170000X-0.140000X0.170000X-0.140000X-0.170000X0.140000X-0.170000X0*%
%ADD13R,0.458000X1.510000*%
%ADD14RoundRect,0.250000X-0.250000X-0.475000X0.250000X-0.475000X0.250000X0.475000X-0.250000X0.475000X0*%
%ADD15RoundRect,0.140000X0.170000X-0.140000X0.170000X0.140000X-0.170000X0.140000X-0.170000X-0.140000X0*%
G04 APERTURE END LIST*
D10*
X170300000Y-92449999D03*
X170300000Y-94349999D03*
D11*
X179540000Y-94424999D03*
X180500000Y-94424999D03*
D12*
X175700000Y-94925000D03*
X174740000Y-94925000D03*
X185459999Y-109674998D03*
X184499999Y-109674998D03*
D11*
X181944998Y-109674999D03*
X182904998Y-109674999D03*
D13*
X184499999Y-108074999D03*
X183699999Y-108074999D03*
X182899999Y-108074999D03*
X182099999Y-108074999D03*
X181299999Y-108074999D03*
X180499999Y-108074999D03*
X179699999Y-108074999D03*
X178899999Y-108074999D03*
X178099999Y-108074999D03*
X177299999Y-108074999D03*
X176499999Y-108074999D03*
X175699999Y-108074999D03*
X174899999Y-108074999D03*
X174099999Y-108074999D03*
X173299999Y-108074999D03*
X172499999Y-108074999D03*
X171699999Y-108074999D03*
X170899999Y-108074999D03*
X170099999Y-108074999D03*
X169299999Y-108074999D03*
X168499999Y-108074999D03*
X167699999Y-108074999D03*
X166899999Y-108074999D03*
X166099999Y-108074999D03*
X165299999Y-108074999D03*
X164499999Y-108074999D03*
X163699999Y-108074999D03*
X163699999Y-96574999D03*
X164499999Y-96574999D03*
X165299999Y-96574999D03*
X166099999Y-96574999D03*
X166899999Y-96574999D03*
X167699999Y-96574999D03*
X168499999Y-96574999D03*
X169299999Y-96574999D03*
X170099999Y-96574999D03*
X170899999Y-96574999D03*
X171699999Y-96574999D03*
X172499999Y-96574999D03*
X173299999Y-96574999D03*
X174099999Y-96574999D03*
X174899999Y-96574999D03*
X175699999Y-96574999D03*
X176499999Y-96574999D03*
X177299999Y-96574999D03*
X178099999Y-96574999D03*
X178899999Y-96574999D03*
X179699999Y-96574999D03*
X180499999Y-96574999D03*
X181299999Y-96574999D03*
X182099999Y-96574999D03*
X182899999Y-96574999D03*
X183699999Y-96574999D03*
X184499999Y-96574999D03*
D14*
X159700000Y-108650000D03*
X161600000Y-108650000D03*
D12*
X175059999Y-109674999D03*
X174099999Y-109674999D03*
D15*
X163700001Y-110585000D03*
X163700001Y-109625000D03*
D11*
X177139999Y-109724999D03*
X178099999Y-109724999D03*
M02*
