G04 #@! TF.GenerationSoftware,KiCad,Pcbnew,7.0.9*
G04 #@! TF.CreationDate,2024-03-14T12:42:54+01:00*
G04 #@! TF.ProjectId,Apothecary - DSP Development Board,41706f74-6865-4636-9172-79202d204453,rev?*
G04 #@! TF.SameCoordinates,Original*
G04 #@! TF.FileFunction,Legend,Bot*
G04 #@! TF.FilePolarity,Positive*
%FSLAX46Y46*%
G04 Gerber Fmt 4.6, Leading zero omitted, Abs format (unit mm)*
G04 Created by KiCad (PCBNEW 7.0.9) date 2024-03-14 12:42:54*
%MOMM*%
%LPD*%
G01*
G04 APERTURE LIST*
G04 Aperture macros list*
%AMRoundRect*
0 Rectangle with rounded corners*
0 $1 Rounding radius*
0 $2 $3 $4 $5 $6 $7 $8 $9 X,Y pos of 4 corners*
0 Add a 4 corners polygon primitive as box body*
4,1,4,$2,$3,$4,$5,$6,$7,$8,$9,$2,$3,0*
0 Add four circle primitives for the rounded corners*
1,1,$1+$1,$2,$3*
1,1,$1+$1,$4,$5*
1,1,$1+$1,$6,$7*
1,1,$1+$1,$8,$9*
0 Add four rect primitives between the rounded corners*
20,1,$1+$1,$2,$3,$4,$5,0*
20,1,$1+$1,$4,$5,$6,$7,0*
20,1,$1+$1,$6,$7,$8,$9,0*
20,1,$1+$1,$8,$9,$2,$3,0*%
G04 Aperture macros list end*
%ADD10C,0.150000*%
%ADD11C,0.300000*%
%ADD12C,0.120000*%
%ADD13O,1.800000X2.800000*%
%ADD14C,1.250000*%
%ADD15O,3.402400X1.777400*%
%ADD16C,4.600000*%
%ADD17C,1.800000*%
%ADD18C,2.000000*%
%ADD19C,1.700000*%
%ADD20C,4.700000*%
%ADD21C,1.600000*%
%ADD22C,3.400000*%
%ADD23C,2.900000*%
%ADD24C,0.990600*%
%ADD25C,2.374900*%
%ADD26R,2.000000X4.000000*%
%ADD27O,2.000000X3.300000*%
%ADD28O,3.500000X2.000000*%
%ADD29R,2.600000X2.600000*%
%ADD30C,2.600000*%
%ADD31C,3.000000*%
%ADD32RoundRect,0.250000X-0.475000X0.250000X-0.475000X-0.250000X0.475000X-0.250000X0.475000X0.250000X0*%
%ADD33RoundRect,0.140000X-0.140000X-0.170000X0.140000X-0.170000X0.140000X0.170000X-0.140000X0.170000X0*%
%ADD34C,1.000000*%
%ADD35RoundRect,0.140000X0.140000X0.170000X-0.140000X0.170000X-0.140000X-0.170000X0.140000X-0.170000X0*%
%ADD36R,0.458000X1.510000*%
%ADD37RoundRect,0.250000X-0.250000X-0.475000X0.250000X-0.475000X0.250000X0.475000X-0.250000X0.475000X0*%
%ADD38RoundRect,0.140000X0.170000X-0.140000X0.170000X0.140000X-0.170000X0.140000X-0.170000X-0.140000X0*%
G04 APERTURE END LIST*
D10*
X148950000Y-64500000D02*
X208650000Y-64500000D01*
X149000000Y-22750000D02*
X149000000Y-156750000D01*
D11*
X185970600Y-107540224D02*
X185899171Y-107325939D01*
X185899171Y-107325939D02*
X185899171Y-106968796D01*
X185899171Y-106968796D02*
X185970600Y-106825939D01*
X185970600Y-106825939D02*
X186042028Y-106754510D01*
X186042028Y-106754510D02*
X186184885Y-106683081D01*
X186184885Y-106683081D02*
X186327742Y-106683081D01*
X186327742Y-106683081D02*
X186470600Y-106754510D01*
X186470600Y-106754510D02*
X186542028Y-106825939D01*
X186542028Y-106825939D02*
X186613457Y-106968796D01*
X186613457Y-106968796D02*
X186684885Y-107254510D01*
X186684885Y-107254510D02*
X186756314Y-107397367D01*
X186756314Y-107397367D02*
X186827742Y-107468796D01*
X186827742Y-107468796D02*
X186970600Y-107540224D01*
X186970600Y-107540224D02*
X187113457Y-107540224D01*
X187113457Y-107540224D02*
X187256314Y-107468796D01*
X187256314Y-107468796D02*
X187327742Y-107397367D01*
X187327742Y-107397367D02*
X187399171Y-107254510D01*
X187399171Y-107254510D02*
X187399171Y-106897367D01*
X187399171Y-106897367D02*
X187327742Y-106683081D01*
X185899171Y-106040225D02*
X187399171Y-106040225D01*
X187399171Y-106040225D02*
X187399171Y-105683082D01*
X187399171Y-105683082D02*
X187327742Y-105468796D01*
X187327742Y-105468796D02*
X187184885Y-105325939D01*
X187184885Y-105325939D02*
X187042028Y-105254510D01*
X187042028Y-105254510D02*
X186756314Y-105183082D01*
X186756314Y-105183082D02*
X186542028Y-105183082D01*
X186542028Y-105183082D02*
X186256314Y-105254510D01*
X186256314Y-105254510D02*
X186113457Y-105325939D01*
X186113457Y-105325939D02*
X185970600Y-105468796D01*
X185970600Y-105468796D02*
X185899171Y-105683082D01*
X185899171Y-105683082D02*
X185899171Y-106040225D01*
X185899171Y-103683082D02*
X186613457Y-104183082D01*
X185899171Y-104540225D02*
X187399171Y-104540225D01*
X187399171Y-104540225D02*
X187399171Y-103968796D01*
X187399171Y-103968796D02*
X187327742Y-103825939D01*
X187327742Y-103825939D02*
X187256314Y-103754510D01*
X187256314Y-103754510D02*
X187113457Y-103683082D01*
X187113457Y-103683082D02*
X186899171Y-103683082D01*
X186899171Y-103683082D02*
X186756314Y-103754510D01*
X186756314Y-103754510D02*
X186684885Y-103825939D01*
X186684885Y-103825939D02*
X186613457Y-103968796D01*
X186613457Y-103968796D02*
X186613457Y-104540225D01*
X186327742Y-103111653D02*
X186327742Y-102397368D01*
X185899171Y-103254510D02*
X187399171Y-102754510D01*
X187399171Y-102754510D02*
X185899171Y-102254510D01*
X185899171Y-101754511D02*
X187399171Y-101754511D01*
X187399171Y-101754511D02*
X186327742Y-101254511D01*
X186327742Y-101254511D02*
X187399171Y-100754511D01*
X187399171Y-100754511D02*
X185899171Y-100754511D01*
D10*
X168979580Y-92757141D02*
X169027200Y-92709522D01*
X169027200Y-92709522D02*
X169074819Y-92566665D01*
X169074819Y-92566665D02*
X169074819Y-92471427D01*
X169074819Y-92471427D02*
X169027200Y-92328570D01*
X169027200Y-92328570D02*
X168931961Y-92233332D01*
X168931961Y-92233332D02*
X168836723Y-92185713D01*
X168836723Y-92185713D02*
X168646247Y-92138094D01*
X168646247Y-92138094D02*
X168503390Y-92138094D01*
X168503390Y-92138094D02*
X168312914Y-92185713D01*
X168312914Y-92185713D02*
X168217676Y-92233332D01*
X168217676Y-92233332D02*
X168122438Y-92328570D01*
X168122438Y-92328570D02*
X168074819Y-92471427D01*
X168074819Y-92471427D02*
X168074819Y-92566665D01*
X168074819Y-92566665D02*
X168122438Y-92709522D01*
X168122438Y-92709522D02*
X168170057Y-92757141D01*
X168074819Y-93661903D02*
X168074819Y-93185713D01*
X168074819Y-93185713D02*
X168551009Y-93138094D01*
X168551009Y-93138094D02*
X168503390Y-93185713D01*
X168503390Y-93185713D02*
X168455771Y-93280951D01*
X168455771Y-93280951D02*
X168455771Y-93519046D01*
X168455771Y-93519046D02*
X168503390Y-93614284D01*
X168503390Y-93614284D02*
X168551009Y-93661903D01*
X168551009Y-93661903D02*
X168646247Y-93709522D01*
X168646247Y-93709522D02*
X168884342Y-93709522D01*
X168884342Y-93709522D02*
X168979580Y-93661903D01*
X168979580Y-93661903D02*
X169027200Y-93614284D01*
X169027200Y-93614284D02*
X169074819Y-93519046D01*
X169074819Y-93519046D02*
X169074819Y-93280951D01*
X169074819Y-93280951D02*
X169027200Y-93185713D01*
X169027200Y-93185713D02*
X168979580Y-93138094D01*
X169074819Y-94661903D02*
X169074819Y-94090475D01*
X169074819Y-94376189D02*
X168074819Y-94376189D01*
X168074819Y-94376189D02*
X168217676Y-94280951D01*
X168217676Y-94280951D02*
X168312914Y-94185713D01*
X168312914Y-94185713D02*
X168360533Y-94090475D01*
X180642857Y-92909580D02*
X180690476Y-92957200D01*
X180690476Y-92957200D02*
X180833333Y-93004819D01*
X180833333Y-93004819D02*
X180928571Y-93004819D01*
X180928571Y-93004819D02*
X181071428Y-92957200D01*
X181071428Y-92957200D02*
X181166666Y-92861961D01*
X181166666Y-92861961D02*
X181214285Y-92766723D01*
X181214285Y-92766723D02*
X181261904Y-92576247D01*
X181261904Y-92576247D02*
X181261904Y-92433390D01*
X181261904Y-92433390D02*
X181214285Y-92242914D01*
X181214285Y-92242914D02*
X181166666Y-92147676D01*
X181166666Y-92147676D02*
X181071428Y-92052438D01*
X181071428Y-92052438D02*
X180928571Y-92004819D01*
X180928571Y-92004819D02*
X180833333Y-92004819D01*
X180833333Y-92004819D02*
X180690476Y-92052438D01*
X180690476Y-92052438D02*
X180642857Y-92100057D01*
X179738095Y-92004819D02*
X180214285Y-92004819D01*
X180214285Y-92004819D02*
X180261904Y-92481009D01*
X180261904Y-92481009D02*
X180214285Y-92433390D01*
X180214285Y-92433390D02*
X180119047Y-92385771D01*
X180119047Y-92385771D02*
X179880952Y-92385771D01*
X179880952Y-92385771D02*
X179785714Y-92433390D01*
X179785714Y-92433390D02*
X179738095Y-92481009D01*
X179738095Y-92481009D02*
X179690476Y-92576247D01*
X179690476Y-92576247D02*
X179690476Y-92814342D01*
X179690476Y-92814342D02*
X179738095Y-92909580D01*
X179738095Y-92909580D02*
X179785714Y-92957200D01*
X179785714Y-92957200D02*
X179880952Y-93004819D01*
X179880952Y-93004819D02*
X180119047Y-93004819D01*
X180119047Y-93004819D02*
X180214285Y-92957200D01*
X180214285Y-92957200D02*
X180261904Y-92909580D01*
X179071428Y-92004819D02*
X178976190Y-92004819D01*
X178976190Y-92004819D02*
X178880952Y-92052438D01*
X178880952Y-92052438D02*
X178833333Y-92100057D01*
X178833333Y-92100057D02*
X178785714Y-92195295D01*
X178785714Y-92195295D02*
X178738095Y-92385771D01*
X178738095Y-92385771D02*
X178738095Y-92623866D01*
X178738095Y-92623866D02*
X178785714Y-92814342D01*
X178785714Y-92814342D02*
X178833333Y-92909580D01*
X178833333Y-92909580D02*
X178880952Y-92957200D01*
X178880952Y-92957200D02*
X178976190Y-93004819D01*
X178976190Y-93004819D02*
X179071428Y-93004819D01*
X179071428Y-93004819D02*
X179166666Y-92957200D01*
X179166666Y-92957200D02*
X179214285Y-92909580D01*
X179214285Y-92909580D02*
X179261904Y-92814342D01*
X179261904Y-92814342D02*
X179309523Y-92623866D01*
X179309523Y-92623866D02*
X179309523Y-92385771D01*
X179309523Y-92385771D02*
X179261904Y-92195295D01*
X179261904Y-92195295D02*
X179214285Y-92100057D01*
X179214285Y-92100057D02*
X179166666Y-92052438D01*
X179166666Y-92052438D02*
X179071428Y-92004819D01*
X202821428Y-149431009D02*
X203154761Y-149431009D01*
X203154761Y-149954819D02*
X203154761Y-148954819D01*
X203154761Y-148954819D02*
X202678571Y-148954819D01*
X202297618Y-149954819D02*
X202297618Y-148954819D01*
X201821428Y-149954819D02*
X201821428Y-148954819D01*
X201821428Y-148954819D02*
X201583333Y-148954819D01*
X201583333Y-148954819D02*
X201440476Y-149002438D01*
X201440476Y-149002438D02*
X201345238Y-149097676D01*
X201345238Y-149097676D02*
X201297619Y-149192914D01*
X201297619Y-149192914D02*
X201250000Y-149383390D01*
X201250000Y-149383390D02*
X201250000Y-149526247D01*
X201250000Y-149526247D02*
X201297619Y-149716723D01*
X201297619Y-149716723D02*
X201345238Y-149811961D01*
X201345238Y-149811961D02*
X201440476Y-149907200D01*
X201440476Y-149907200D02*
X201583333Y-149954819D01*
X201583333Y-149954819D02*
X201821428Y-149954819D01*
X200392857Y-148954819D02*
X200583333Y-148954819D01*
X200583333Y-148954819D02*
X200678571Y-149002438D01*
X200678571Y-149002438D02*
X200726190Y-149050057D01*
X200726190Y-149050057D02*
X200821428Y-149192914D01*
X200821428Y-149192914D02*
X200869047Y-149383390D01*
X200869047Y-149383390D02*
X200869047Y-149764342D01*
X200869047Y-149764342D02*
X200821428Y-149859580D01*
X200821428Y-149859580D02*
X200773809Y-149907200D01*
X200773809Y-149907200D02*
X200678571Y-149954819D01*
X200678571Y-149954819D02*
X200488095Y-149954819D01*
X200488095Y-149954819D02*
X200392857Y-149907200D01*
X200392857Y-149907200D02*
X200345238Y-149859580D01*
X200345238Y-149859580D02*
X200297619Y-149764342D01*
X200297619Y-149764342D02*
X200297619Y-149526247D01*
X200297619Y-149526247D02*
X200345238Y-149431009D01*
X200345238Y-149431009D02*
X200392857Y-149383390D01*
X200392857Y-149383390D02*
X200488095Y-149335771D01*
X200488095Y-149335771D02*
X200678571Y-149335771D01*
X200678571Y-149335771D02*
X200773809Y-149383390D01*
X200773809Y-149383390D02*
X200821428Y-149431009D01*
X200821428Y-149431009D02*
X200869047Y-149526247D01*
X176892857Y-94109580D02*
X176940476Y-94157200D01*
X176940476Y-94157200D02*
X177083333Y-94204819D01*
X177083333Y-94204819D02*
X177178571Y-94204819D01*
X177178571Y-94204819D02*
X177321428Y-94157200D01*
X177321428Y-94157200D02*
X177416666Y-94061961D01*
X177416666Y-94061961D02*
X177464285Y-93966723D01*
X177464285Y-93966723D02*
X177511904Y-93776247D01*
X177511904Y-93776247D02*
X177511904Y-93633390D01*
X177511904Y-93633390D02*
X177464285Y-93442914D01*
X177464285Y-93442914D02*
X177416666Y-93347676D01*
X177416666Y-93347676D02*
X177321428Y-93252438D01*
X177321428Y-93252438D02*
X177178571Y-93204819D01*
X177178571Y-93204819D02*
X177083333Y-93204819D01*
X177083333Y-93204819D02*
X176940476Y-93252438D01*
X176940476Y-93252438D02*
X176892857Y-93300057D01*
X176035714Y-93538152D02*
X176035714Y-94204819D01*
X176273809Y-93157200D02*
X176511904Y-93871485D01*
X176511904Y-93871485D02*
X175892857Y-93871485D01*
X175083333Y-93538152D02*
X175083333Y-94204819D01*
X175321428Y-93157200D02*
X175559523Y-93871485D01*
X175559523Y-93871485D02*
X174940476Y-93871485D01*
X185892856Y-111284578D02*
X185940475Y-111332198D01*
X185940475Y-111332198D02*
X186083332Y-111379817D01*
X186083332Y-111379817D02*
X186178570Y-111379817D01*
X186178570Y-111379817D02*
X186321427Y-111332198D01*
X186321427Y-111332198D02*
X186416665Y-111236959D01*
X186416665Y-111236959D02*
X186464284Y-111141721D01*
X186464284Y-111141721D02*
X186511903Y-110951245D01*
X186511903Y-110951245D02*
X186511903Y-110808388D01*
X186511903Y-110808388D02*
X186464284Y-110617912D01*
X186464284Y-110617912D02*
X186416665Y-110522674D01*
X186416665Y-110522674D02*
X186321427Y-110427436D01*
X186321427Y-110427436D02*
X186178570Y-110379817D01*
X186178570Y-110379817D02*
X186083332Y-110379817D01*
X186083332Y-110379817D02*
X185940475Y-110427436D01*
X185940475Y-110427436D02*
X185892856Y-110475055D01*
X185035713Y-110713150D02*
X185035713Y-111379817D01*
X185273808Y-110332198D02*
X185511903Y-111046483D01*
X185511903Y-111046483D02*
X184892856Y-111046483D01*
X184083332Y-110379817D02*
X184273808Y-110379817D01*
X184273808Y-110379817D02*
X184369046Y-110427436D01*
X184369046Y-110427436D02*
X184416665Y-110475055D01*
X184416665Y-110475055D02*
X184511903Y-110617912D01*
X184511903Y-110617912D02*
X184559522Y-110808388D01*
X184559522Y-110808388D02*
X184559522Y-111189340D01*
X184559522Y-111189340D02*
X184511903Y-111284578D01*
X184511903Y-111284578D02*
X184464284Y-111332198D01*
X184464284Y-111332198D02*
X184369046Y-111379817D01*
X184369046Y-111379817D02*
X184178570Y-111379817D01*
X184178570Y-111379817D02*
X184083332Y-111332198D01*
X184083332Y-111332198D02*
X184035713Y-111284578D01*
X184035713Y-111284578D02*
X183988094Y-111189340D01*
X183988094Y-111189340D02*
X183988094Y-110951245D01*
X183988094Y-110951245D02*
X184035713Y-110856007D01*
X184035713Y-110856007D02*
X184083332Y-110808388D01*
X184083332Y-110808388D02*
X184178570Y-110760769D01*
X184178570Y-110760769D02*
X184369046Y-110760769D01*
X184369046Y-110760769D02*
X184464284Y-110808388D01*
X184464284Y-110808388D02*
X184511903Y-110856007D01*
X184511903Y-110856007D02*
X184559522Y-110951245D01*
X182842855Y-111334579D02*
X182890474Y-111382199D01*
X182890474Y-111382199D02*
X183033331Y-111429818D01*
X183033331Y-111429818D02*
X183128569Y-111429818D01*
X183128569Y-111429818D02*
X183271426Y-111382199D01*
X183271426Y-111382199D02*
X183366664Y-111286960D01*
X183366664Y-111286960D02*
X183414283Y-111191722D01*
X183414283Y-111191722D02*
X183461902Y-111001246D01*
X183461902Y-111001246D02*
X183461902Y-110858389D01*
X183461902Y-110858389D02*
X183414283Y-110667913D01*
X183414283Y-110667913D02*
X183366664Y-110572675D01*
X183366664Y-110572675D02*
X183271426Y-110477437D01*
X183271426Y-110477437D02*
X183128569Y-110429818D01*
X183128569Y-110429818D02*
X183033331Y-110429818D01*
X183033331Y-110429818D02*
X182890474Y-110477437D01*
X182890474Y-110477437D02*
X182842855Y-110525056D01*
X181985712Y-110763151D02*
X181985712Y-111429818D01*
X182223807Y-110382199D02*
X182461902Y-111096484D01*
X182461902Y-111096484D02*
X181842855Y-111096484D01*
X181557140Y-110429818D02*
X180938093Y-110429818D01*
X180938093Y-110429818D02*
X181271426Y-110810770D01*
X181271426Y-110810770D02*
X181128569Y-110810770D01*
X181128569Y-110810770D02*
X181033331Y-110858389D01*
X181033331Y-110858389D02*
X180985712Y-110906008D01*
X180985712Y-110906008D02*
X180938093Y-111001246D01*
X180938093Y-111001246D02*
X180938093Y-111239341D01*
X180938093Y-111239341D02*
X180985712Y-111334579D01*
X180985712Y-111334579D02*
X181033331Y-111382199D01*
X181033331Y-111382199D02*
X181128569Y-111429818D01*
X181128569Y-111429818D02*
X181414283Y-111429818D01*
X181414283Y-111429818D02*
X181509521Y-111382199D01*
X181509521Y-111382199D02*
X181557140Y-111334579D01*
X203071428Y-27181009D02*
X203404761Y-27181009D01*
X203404761Y-27704819D02*
X203404761Y-26704819D01*
X203404761Y-26704819D02*
X202928571Y-26704819D01*
X202547618Y-27704819D02*
X202547618Y-26704819D01*
X202071428Y-27704819D02*
X202071428Y-26704819D01*
X202071428Y-26704819D02*
X201833333Y-26704819D01*
X201833333Y-26704819D02*
X201690476Y-26752438D01*
X201690476Y-26752438D02*
X201595238Y-26847676D01*
X201595238Y-26847676D02*
X201547619Y-26942914D01*
X201547619Y-26942914D02*
X201500000Y-27133390D01*
X201500000Y-27133390D02*
X201500000Y-27276247D01*
X201500000Y-27276247D02*
X201547619Y-27466723D01*
X201547619Y-27466723D02*
X201595238Y-27561961D01*
X201595238Y-27561961D02*
X201690476Y-27657200D01*
X201690476Y-27657200D02*
X201833333Y-27704819D01*
X201833333Y-27704819D02*
X202071428Y-27704819D01*
X200642857Y-27038152D02*
X200642857Y-27704819D01*
X200880952Y-26657200D02*
X201119047Y-27371485D01*
X201119047Y-27371485D02*
X200500000Y-27371485D01*
X165811903Y-94279818D02*
X165811903Y-95089341D01*
X165811903Y-95089341D02*
X165764284Y-95184579D01*
X165764284Y-95184579D02*
X165716665Y-95232199D01*
X165716665Y-95232199D02*
X165621427Y-95279818D01*
X165621427Y-95279818D02*
X165430951Y-95279818D01*
X165430951Y-95279818D02*
X165335713Y-95232199D01*
X165335713Y-95232199D02*
X165288094Y-95184579D01*
X165288094Y-95184579D02*
X165240475Y-95089341D01*
X165240475Y-95089341D02*
X165240475Y-94279818D01*
X164621427Y-94708389D02*
X164716665Y-94660770D01*
X164716665Y-94660770D02*
X164764284Y-94613151D01*
X164764284Y-94613151D02*
X164811903Y-94517913D01*
X164811903Y-94517913D02*
X164811903Y-94470294D01*
X164811903Y-94470294D02*
X164764284Y-94375056D01*
X164764284Y-94375056D02*
X164716665Y-94327437D01*
X164716665Y-94327437D02*
X164621427Y-94279818D01*
X164621427Y-94279818D02*
X164430951Y-94279818D01*
X164430951Y-94279818D02*
X164335713Y-94327437D01*
X164335713Y-94327437D02*
X164288094Y-94375056D01*
X164288094Y-94375056D02*
X164240475Y-94470294D01*
X164240475Y-94470294D02*
X164240475Y-94517913D01*
X164240475Y-94517913D02*
X164288094Y-94613151D01*
X164288094Y-94613151D02*
X164335713Y-94660770D01*
X164335713Y-94660770D02*
X164430951Y-94708389D01*
X164430951Y-94708389D02*
X164621427Y-94708389D01*
X164621427Y-94708389D02*
X164716665Y-94756008D01*
X164716665Y-94756008D02*
X164764284Y-94803627D01*
X164764284Y-94803627D02*
X164811903Y-94898865D01*
X164811903Y-94898865D02*
X164811903Y-95089341D01*
X164811903Y-95089341D02*
X164764284Y-95184579D01*
X164764284Y-95184579D02*
X164716665Y-95232199D01*
X164716665Y-95232199D02*
X164621427Y-95279818D01*
X164621427Y-95279818D02*
X164430951Y-95279818D01*
X164430951Y-95279818D02*
X164335713Y-95232199D01*
X164335713Y-95232199D02*
X164288094Y-95184579D01*
X164288094Y-95184579D02*
X164240475Y-95089341D01*
X164240475Y-95089341D02*
X164240475Y-94898865D01*
X164240475Y-94898865D02*
X164288094Y-94803627D01*
X164288094Y-94803627D02*
X164335713Y-94756008D01*
X164335713Y-94756008D02*
X164430951Y-94708389D01*
X161542857Y-110809580D02*
X161590476Y-110857200D01*
X161590476Y-110857200D02*
X161733333Y-110904819D01*
X161733333Y-110904819D02*
X161828571Y-110904819D01*
X161828571Y-110904819D02*
X161971428Y-110857200D01*
X161971428Y-110857200D02*
X162066666Y-110761961D01*
X162066666Y-110761961D02*
X162114285Y-110666723D01*
X162114285Y-110666723D02*
X162161904Y-110476247D01*
X162161904Y-110476247D02*
X162161904Y-110333390D01*
X162161904Y-110333390D02*
X162114285Y-110142914D01*
X162114285Y-110142914D02*
X162066666Y-110047676D01*
X162066666Y-110047676D02*
X161971428Y-109952438D01*
X161971428Y-109952438D02*
X161828571Y-109904819D01*
X161828571Y-109904819D02*
X161733333Y-109904819D01*
X161733333Y-109904819D02*
X161590476Y-109952438D01*
X161590476Y-109952438D02*
X161542857Y-110000057D01*
X160685714Y-110238152D02*
X160685714Y-110904819D01*
X160923809Y-109857200D02*
X161161904Y-110571485D01*
X161161904Y-110571485D02*
X160542857Y-110571485D01*
X160209523Y-110000057D02*
X160161904Y-109952438D01*
X160161904Y-109952438D02*
X160066666Y-109904819D01*
X160066666Y-109904819D02*
X159828571Y-109904819D01*
X159828571Y-109904819D02*
X159733333Y-109952438D01*
X159733333Y-109952438D02*
X159685714Y-110000057D01*
X159685714Y-110000057D02*
X159638095Y-110095295D01*
X159638095Y-110095295D02*
X159638095Y-110190533D01*
X159638095Y-110190533D02*
X159685714Y-110333390D01*
X159685714Y-110333390D02*
X160257142Y-110904819D01*
X160257142Y-110904819D02*
X159638095Y-110904819D01*
X175492856Y-112184579D02*
X175540475Y-112232199D01*
X175540475Y-112232199D02*
X175683332Y-112279818D01*
X175683332Y-112279818D02*
X175778570Y-112279818D01*
X175778570Y-112279818D02*
X175921427Y-112232199D01*
X175921427Y-112232199D02*
X176016665Y-112136960D01*
X176016665Y-112136960D02*
X176064284Y-112041722D01*
X176064284Y-112041722D02*
X176111903Y-111851246D01*
X176111903Y-111851246D02*
X176111903Y-111708389D01*
X176111903Y-111708389D02*
X176064284Y-111517913D01*
X176064284Y-111517913D02*
X176016665Y-111422675D01*
X176016665Y-111422675D02*
X175921427Y-111327437D01*
X175921427Y-111327437D02*
X175778570Y-111279818D01*
X175778570Y-111279818D02*
X175683332Y-111279818D01*
X175683332Y-111279818D02*
X175540475Y-111327437D01*
X175540475Y-111327437D02*
X175492856Y-111375056D01*
X174635713Y-111613151D02*
X174635713Y-112279818D01*
X174873808Y-111232199D02*
X175111903Y-111946484D01*
X175111903Y-111946484D02*
X174492856Y-111946484D01*
X173635713Y-111279818D02*
X174111903Y-111279818D01*
X174111903Y-111279818D02*
X174159522Y-111756008D01*
X174159522Y-111756008D02*
X174111903Y-111708389D01*
X174111903Y-111708389D02*
X174016665Y-111660770D01*
X174016665Y-111660770D02*
X173778570Y-111660770D01*
X173778570Y-111660770D02*
X173683332Y-111708389D01*
X173683332Y-111708389D02*
X173635713Y-111756008D01*
X173635713Y-111756008D02*
X173588094Y-111851246D01*
X173588094Y-111851246D02*
X173588094Y-112089341D01*
X173588094Y-112089341D02*
X173635713Y-112184579D01*
X173635713Y-112184579D02*
X173683332Y-112232199D01*
X173683332Y-112232199D02*
X173778570Y-112279818D01*
X173778570Y-112279818D02*
X174016665Y-112279818D01*
X174016665Y-112279818D02*
X174111903Y-112232199D01*
X174111903Y-112232199D02*
X174159522Y-112184579D01*
X163859580Y-111907142D02*
X163907200Y-111859523D01*
X163907200Y-111859523D02*
X163954819Y-111716666D01*
X163954819Y-111716666D02*
X163954819Y-111621428D01*
X163954819Y-111621428D02*
X163907200Y-111478571D01*
X163907200Y-111478571D02*
X163811961Y-111383333D01*
X163811961Y-111383333D02*
X163716723Y-111335714D01*
X163716723Y-111335714D02*
X163526247Y-111288095D01*
X163526247Y-111288095D02*
X163383390Y-111288095D01*
X163383390Y-111288095D02*
X163192914Y-111335714D01*
X163192914Y-111335714D02*
X163097676Y-111383333D01*
X163097676Y-111383333D02*
X163002438Y-111478571D01*
X163002438Y-111478571D02*
X162954819Y-111621428D01*
X162954819Y-111621428D02*
X162954819Y-111716666D01*
X162954819Y-111716666D02*
X163002438Y-111859523D01*
X163002438Y-111859523D02*
X163050057Y-111907142D01*
X163288152Y-112764285D02*
X163954819Y-112764285D01*
X162907200Y-112526190D02*
X163621485Y-112288095D01*
X163621485Y-112288095D02*
X163621485Y-112907142D01*
X163954819Y-113335714D02*
X163954819Y-113526190D01*
X163954819Y-113526190D02*
X163907200Y-113621428D01*
X163907200Y-113621428D02*
X163859580Y-113669047D01*
X163859580Y-113669047D02*
X163716723Y-113764285D01*
X163716723Y-113764285D02*
X163526247Y-113811904D01*
X163526247Y-113811904D02*
X163145295Y-113811904D01*
X163145295Y-113811904D02*
X163050057Y-113764285D01*
X163050057Y-113764285D02*
X163002438Y-113716666D01*
X163002438Y-113716666D02*
X162954819Y-113621428D01*
X162954819Y-113621428D02*
X162954819Y-113430952D01*
X162954819Y-113430952D02*
X163002438Y-113335714D01*
X163002438Y-113335714D02*
X163050057Y-113288095D01*
X163050057Y-113288095D02*
X163145295Y-113240476D01*
X163145295Y-113240476D02*
X163383390Y-113240476D01*
X163383390Y-113240476D02*
X163478628Y-113288095D01*
X163478628Y-113288095D02*
X163526247Y-113335714D01*
X163526247Y-113335714D02*
X163573866Y-113430952D01*
X163573866Y-113430952D02*
X163573866Y-113621428D01*
X163573866Y-113621428D02*
X163526247Y-113716666D01*
X163526247Y-113716666D02*
X163478628Y-113764285D01*
X163478628Y-113764285D02*
X163383390Y-113811904D01*
X178592856Y-112084579D02*
X178640475Y-112132199D01*
X178640475Y-112132199D02*
X178783332Y-112179818D01*
X178783332Y-112179818D02*
X178878570Y-112179818D01*
X178878570Y-112179818D02*
X179021427Y-112132199D01*
X179021427Y-112132199D02*
X179116665Y-112036960D01*
X179116665Y-112036960D02*
X179164284Y-111941722D01*
X179164284Y-111941722D02*
X179211903Y-111751246D01*
X179211903Y-111751246D02*
X179211903Y-111608389D01*
X179211903Y-111608389D02*
X179164284Y-111417913D01*
X179164284Y-111417913D02*
X179116665Y-111322675D01*
X179116665Y-111322675D02*
X179021427Y-111227437D01*
X179021427Y-111227437D02*
X178878570Y-111179818D01*
X178878570Y-111179818D02*
X178783332Y-111179818D01*
X178783332Y-111179818D02*
X178640475Y-111227437D01*
X178640475Y-111227437D02*
X178592856Y-111275056D01*
X177735713Y-111513151D02*
X177735713Y-112179818D01*
X177973808Y-111132199D02*
X178211903Y-111846484D01*
X178211903Y-111846484D02*
X177592856Y-111846484D01*
X177069046Y-111608389D02*
X177164284Y-111560770D01*
X177164284Y-111560770D02*
X177211903Y-111513151D01*
X177211903Y-111513151D02*
X177259522Y-111417913D01*
X177259522Y-111417913D02*
X177259522Y-111370294D01*
X177259522Y-111370294D02*
X177211903Y-111275056D01*
X177211903Y-111275056D02*
X177164284Y-111227437D01*
X177164284Y-111227437D02*
X177069046Y-111179818D01*
X177069046Y-111179818D02*
X176878570Y-111179818D01*
X176878570Y-111179818D02*
X176783332Y-111227437D01*
X176783332Y-111227437D02*
X176735713Y-111275056D01*
X176735713Y-111275056D02*
X176688094Y-111370294D01*
X176688094Y-111370294D02*
X176688094Y-111417913D01*
X176688094Y-111417913D02*
X176735713Y-111513151D01*
X176735713Y-111513151D02*
X176783332Y-111560770D01*
X176783332Y-111560770D02*
X176878570Y-111608389D01*
X176878570Y-111608389D02*
X177069046Y-111608389D01*
X177069046Y-111608389D02*
X177164284Y-111656008D01*
X177164284Y-111656008D02*
X177211903Y-111703627D01*
X177211903Y-111703627D02*
X177259522Y-111798865D01*
X177259522Y-111798865D02*
X177259522Y-111989341D01*
X177259522Y-111989341D02*
X177211903Y-112084579D01*
X177211903Y-112084579D02*
X177164284Y-112132199D01*
X177164284Y-112132199D02*
X177069046Y-112179818D01*
X177069046Y-112179818D02*
X176878570Y-112179818D01*
X176878570Y-112179818D02*
X176783332Y-112132199D01*
X176783332Y-112132199D02*
X176735713Y-112084579D01*
X176735713Y-112084579D02*
X176688094Y-111989341D01*
X176688094Y-111989341D02*
X176688094Y-111798865D01*
X176688094Y-111798865D02*
X176735713Y-111703627D01*
X176735713Y-111703627D02*
X176783332Y-111656008D01*
X176783332Y-111656008D02*
X176878570Y-111608389D01*
X112571428Y-27181009D02*
X112904761Y-27181009D01*
X112904761Y-27704819D02*
X112904761Y-26704819D01*
X112904761Y-26704819D02*
X112428571Y-26704819D01*
X112047618Y-27704819D02*
X112047618Y-26704819D01*
X111571428Y-27704819D02*
X111571428Y-26704819D01*
X111571428Y-26704819D02*
X111333333Y-26704819D01*
X111333333Y-26704819D02*
X111190476Y-26752438D01*
X111190476Y-26752438D02*
X111095238Y-26847676D01*
X111095238Y-26847676D02*
X111047619Y-26942914D01*
X111047619Y-26942914D02*
X111000000Y-27133390D01*
X111000000Y-27133390D02*
X111000000Y-27276247D01*
X111000000Y-27276247D02*
X111047619Y-27466723D01*
X111047619Y-27466723D02*
X111095238Y-27561961D01*
X111095238Y-27561961D02*
X111190476Y-27657200D01*
X111190476Y-27657200D02*
X111333333Y-27704819D01*
X111333333Y-27704819D02*
X111571428Y-27704819D01*
X110095238Y-26704819D02*
X110571428Y-26704819D01*
X110571428Y-26704819D02*
X110619047Y-27181009D01*
X110619047Y-27181009D02*
X110571428Y-27133390D01*
X110571428Y-27133390D02*
X110476190Y-27085771D01*
X110476190Y-27085771D02*
X110238095Y-27085771D01*
X110238095Y-27085771D02*
X110142857Y-27133390D01*
X110142857Y-27133390D02*
X110095238Y-27181009D01*
X110095238Y-27181009D02*
X110047619Y-27276247D01*
X110047619Y-27276247D02*
X110047619Y-27514342D01*
X110047619Y-27514342D02*
X110095238Y-27609580D01*
X110095238Y-27609580D02*
X110142857Y-27657200D01*
X110142857Y-27657200D02*
X110238095Y-27704819D01*
X110238095Y-27704819D02*
X110476190Y-27704819D01*
X110476190Y-27704819D02*
X110571428Y-27657200D01*
X110571428Y-27657200D02*
X110619047Y-27609580D01*
D12*
X171035000Y-93138747D02*
X171035000Y-93661251D01*
X169565000Y-93138747D02*
X169565000Y-93661251D01*
X179912164Y-94064999D02*
X180127836Y-94064999D01*
X179912164Y-94784999D02*
X180127836Y-94784999D01*
X175327836Y-95285000D02*
X175112164Y-95285000D01*
X175327836Y-94565000D02*
X175112164Y-94565000D01*
X185087835Y-110034998D02*
X184872163Y-110034998D01*
X185087835Y-109314998D02*
X184872163Y-109314998D01*
X182317162Y-109314999D02*
X182532834Y-109314999D01*
X182317162Y-110034999D02*
X182532834Y-110034999D01*
X163199999Y-97024999D02*
X162799999Y-97024999D01*
X185399999Y-107624999D02*
X185399999Y-97024999D01*
X184999999Y-107624999D02*
X185399999Y-107624999D01*
X162799999Y-107624999D02*
X162799999Y-97024999D01*
X163199999Y-107624999D02*
X162799999Y-107624999D01*
X185399999Y-97024999D02*
X184999999Y-97024999D01*
X184999999Y-108824999D02*
X184999999Y-107624999D01*
X160388748Y-107915000D02*
X160911252Y-107915000D01*
X160388748Y-109385000D02*
X160911252Y-109385000D01*
X174687835Y-110034999D02*
X174472163Y-110034999D01*
X174687835Y-109314999D02*
X174472163Y-109314999D01*
X163340001Y-110212836D02*
X163340001Y-109997164D01*
X164060001Y-110212836D02*
X164060001Y-109997164D01*
X177512163Y-109364999D02*
X177727835Y-109364999D01*
X177512163Y-110084999D02*
X177727835Y-110084999D01*
%LPC*%
D13*
X115134422Y-140384422D03*
X107234422Y-142384422D03*
X109634422Y-140384422D03*
D14*
X191600000Y-81250000D03*
X191600000Y-76750000D03*
D15*
X191600000Y-84850000D03*
X191600000Y-73150000D03*
D16*
X111700000Y-101925000D03*
X111700000Y-91925000D03*
D17*
X108400000Y-94425000D03*
X108400000Y-96925000D03*
X108400000Y-99425000D03*
D18*
X200200000Y-97450000D03*
X206200000Y-109450000D03*
X200200000Y-109450000D03*
X206200000Y-97450000D03*
D19*
X201950000Y-107450000D03*
X201950000Y-103450000D03*
X201950000Y-99450000D03*
D20*
X205750000Y-153750000D03*
D21*
X204920000Y-126940000D03*
X199840000Y-134560000D03*
D22*
X191580000Y-126940000D03*
D23*
X195395000Y-130750000D03*
X191580000Y-130750000D03*
X195395000Y-137730000D03*
D22*
X191580000Y-134560000D03*
D23*
X201750000Y-122500000D03*
D16*
X111700000Y-65650000D03*
X111700000Y-55650000D03*
D17*
X108400000Y-58150000D03*
X108400000Y-60650000D03*
X108400000Y-63150000D03*
X117400000Y-128450001D03*
X117400000Y-130950001D03*
X117400000Y-133450001D03*
X114900000Y-128450001D03*
X114900000Y-130950001D03*
X114900000Y-133450001D03*
D20*
X107750000Y-25750000D03*
X205750000Y-25750000D03*
D16*
X111700000Y-85250000D03*
X111700000Y-75250000D03*
D17*
X108400000Y-77750000D03*
X108400000Y-80250000D03*
X108400000Y-82750000D03*
D16*
X111700000Y-118450000D03*
X111700000Y-108450000D03*
D17*
X108400000Y-110950000D03*
X108400000Y-113450000D03*
X108400000Y-115950000D03*
D24*
X163728500Y-73037500D03*
D25*
X160172500Y-74942500D03*
X165252500Y-74942500D03*
D24*
X161696500Y-73037500D03*
X162712500Y-78117500D03*
D25*
X160172500Y-78117500D03*
X165252500Y-78117500D03*
D21*
X206900000Y-47500000D03*
D26*
X197900000Y-47500000D03*
D27*
X203900000Y-47500000D03*
D28*
X204900000Y-52000000D03*
X204900000Y-43000000D03*
D29*
X183750000Y-47455000D03*
D30*
X188750000Y-47455000D03*
D31*
X109200000Y-49980000D03*
X109200000Y-33750000D03*
X121900000Y-49980000D03*
X121900000Y-33750000D03*
D20*
X107750000Y-153750000D03*
D32*
X170300000Y-92449999D03*
X170300000Y-94349999D03*
D33*
X179540000Y-94424999D03*
X180500000Y-94424999D03*
D34*
X201750000Y-151000000D03*
D35*
X175700000Y-94925000D03*
X174740000Y-94925000D03*
X185459999Y-109674998D03*
X184499999Y-109674998D03*
D33*
X181944998Y-109674999D03*
X182904998Y-109674999D03*
D34*
X202000000Y-28750000D03*
D36*
X184499999Y-108074999D03*
X183699999Y-108074999D03*
X182899999Y-108074999D03*
X182099999Y-108074999D03*
X181299999Y-108074999D03*
X180499999Y-108074999D03*
X179699999Y-108074999D03*
X178899999Y-108074999D03*
X178099999Y-108074999D03*
X177299999Y-108074999D03*
X176499999Y-108074999D03*
X175699999Y-108074999D03*
X174899999Y-108074999D03*
X174099999Y-108074999D03*
X173299999Y-108074999D03*
X172499999Y-108074999D03*
X171699999Y-108074999D03*
X170899999Y-108074999D03*
X170099999Y-108074999D03*
X169299999Y-108074999D03*
X168499999Y-108074999D03*
X167699999Y-108074999D03*
X166899999Y-108074999D03*
X166099999Y-108074999D03*
X165299999Y-108074999D03*
X164499999Y-108074999D03*
X163699999Y-108074999D03*
X163699999Y-96574999D03*
X164499999Y-96574999D03*
X165299999Y-96574999D03*
X166099999Y-96574999D03*
X166899999Y-96574999D03*
X167699999Y-96574999D03*
X168499999Y-96574999D03*
X169299999Y-96574999D03*
X170099999Y-96574999D03*
X170899999Y-96574999D03*
X171699999Y-96574999D03*
X172499999Y-96574999D03*
X173299999Y-96574999D03*
X174099999Y-96574999D03*
X174899999Y-96574999D03*
X175699999Y-96574999D03*
X176499999Y-96574999D03*
X177299999Y-96574999D03*
X178099999Y-96574999D03*
X178899999Y-96574999D03*
X179699999Y-96574999D03*
X180499999Y-96574999D03*
X181299999Y-96574999D03*
X182099999Y-96574999D03*
X182899999Y-96574999D03*
X183699999Y-96574999D03*
X184499999Y-96574999D03*
D37*
X159700000Y-108650000D03*
X161600000Y-108650000D03*
D35*
X175059999Y-109674999D03*
X174099999Y-109674999D03*
D38*
X163700001Y-110585000D03*
X163700001Y-109625000D03*
D33*
X177139999Y-109724999D03*
X178099999Y-109724999D03*
D34*
X111500000Y-28750000D03*
%LPD*%
M02*
