M48
; DRILL file {KiCad 7.0.9} date Thu Mar 14 12:43:55 2024
; FORMAT={-:-/ absolute / metric / decimal}
; #@! TF.CreationDate,2024-03-14T12:43:55+01:00
; #@! TF.GenerationSoftware,Kicad,Pcbnew,7.0.9
; #@! TF.FileFunction,Plated,1,4,PTH
FMAT,2
METRIC
; #@! TA.AperFunction,Plated,PTH,ViaDrill
T1C0.300
; #@! TA.AperFunction,Plated,PTH,ViaDrill
T2C0.400
; #@! TA.AperFunction,Plated,PTH,ComponentDrill
T3C0.750
; #@! TA.AperFunction,Plated,PTH,ComponentDrill
T4C0.900
; #@! TA.AperFunction,Plated,PTH,ComponentDrill
T5C1.000
; #@! TA.AperFunction,Plated,PTH,ComponentDrill
T6C1.200
; #@! TA.AperFunction,Plated,PTH,ComponentDrill
T7C1.300
; #@! TA.AperFunction,Plated,PTH,ComponentDrill
T8C1.400
; #@! TA.AperFunction,Plated,PTH,ComponentDrill
T9C1.600
; #@! TA.AperFunction,Plated,PTH,ComponentDrill
T10C2.300
; #@! TA.AperFunction,Plated,PTH,ComponentDrill
T11C2.700
%
G90
G05
T1
X117.8Y-103.85
X120.7Y-126.55
X122.75Y-87.25
X123.293Y-108.25
X125.15Y-107.25
X125.2Y-87.25
X132.95Y-120.3
X133.98Y-97.12
X135.713Y-145.215
X135.882Y-136.734
X138.1Y-107.8
X138.7Y-64.55
X139.95Y-106.9
X141.75Y-82.75
X141.75Y-85.931
X145.0Y-79.05
X147.5Y-83.55
X147.5Y-85.25
X147.782Y-146.484
X150.7Y-128.9
X151.95Y-47.15
X151.95Y-48.05
X152.2Y-111.9
X152.85Y-47.15
X152.85Y-48.05
X153.1Y-111.9
X153.3Y-90.1
X154.0Y-111.9
X154.5Y-88.8
X154.5Y-90.1
X154.8Y-97.35
X155.85Y-103.85
X156.4Y-85.7
X156.4Y-121.95
X157.375Y-84.525
X157.5Y-83.34
X158.249Y-82.447
X158.25Y-105.25
X158.3Y-104.35
X158.462Y-107.583
X158.55Y-121.55
X158.6Y-110.075
X158.615Y-113.035
X158.65Y-111.05
X158.65Y-112.05
X159.53Y-91.79
X159.53Y-98.32
X160.6Y-84.8
X162.356Y-128.333
X162.731Y-109.925
X163.025Y-93.475
X163.3Y-100.35
X163.7Y-95.075
X163.7Y-80.4
X163.834Y-88.767
X164.2Y-122.05
X164.4Y-111.25
X164.55Y-109.825
X164.755Y-118.24
X165.196Y-72.787
X165.227Y-123.077
X165.35Y-110.525
X165.67Y-106.65
X165.7Y-92.475
X165.7Y-118.25
X166.08Y-103.03
X166.09Y-104.07
X166.15Y-102.025
X166.15Y-111.325
X166.56Y-106.64
X166.7Y-91.725
X166.95Y-112.225
X167.52Y-106.64
X168.2Y-73.4
X168.5Y-106.625
X168.85Y-94.35
X169.35Y-106.625
X169.352Y-75.767
X169.4Y-117.45
X170.2Y-118.3
X170.5Y-86.75
X170.5Y-89.0
X170.699Y-123.525
X170.75Y-124.5
X172.3Y-117.375
X172.5Y-98.025
X172.65Y-93.225
X173.0Y-100.5
X173.1Y-118.25
X173.15Y-109.725
X173.6Y-87.75
X173.75Y-120.225
X174.2Y-79.3
X174.2Y-88.875
X174.5Y-94.0
X174.69Y-126.31
X174.725Y-114.3
X174.9Y-106.625
X174.949Y-98.025
X175.05Y-110.625
X175.5Y-112.124
X175.65Y-124.35
X175.7Y-114.325
X175.7Y-120.35
X176.0Y-87.55
X176.5Y-98.025
X176.5Y-106.625
X177.15Y-110.625
X177.3Y-106.625
X177.35Y-98.025
X177.5Y-78.75
X177.6Y-114.3
X177.95Y-92.025
X177.95Y-92.825
X178.45Y-94.825
X178.85Y-98.025
X178.9Y-106.625
X179.05Y-113.525
X179.18Y-118.32
X179.55Y-104.725
X179.6Y-88.55
X179.75Y-95.325
X180.05Y-104.025
X180.15Y-111.375
X180.25Y-118.35
X180.638Y-103.339
X180.65Y-109.525
X180.75Y-93.525
X181.15Y-102.725
X181.508Y-94.125
X181.65Y-105.725
X181.8Y-114.45
X182.0Y-102.017
X182.6Y-130.6
X182.9Y-93.85
X183.005Y-114.445
X183.023Y-102.617
X183.711Y-95.061
X183.905Y-114.436
X184.2Y-130.3
X184.2Y-131.75
X184.4Y-110.5
X184.5Y-118.25
X185.0Y-95.05
X185.5Y-118.2
X185.7Y-88.75
X186.276Y-77.983
X186.276Y-79.983
X186.5Y-120.6
X187.2Y-119.4
X187.25Y-115.5
X187.951Y-119.8
X188.25Y-107.325
X188.443Y-93.228
X188.65Y-97.75
X189.265Y-106.285
X189.7Y-100.475
X190.4Y-112.45
X192.283Y-108.467
X192.5Y-114.25
X193.55Y-110.05
T2
X107.0Y-37.0
X107.0Y-43.0
X110.0Y-40.0
X110.0Y-46.0
X113.0Y-25.0
X113.0Y-31.0
X113.0Y-37.0
X113.0Y-43.0
X113.25Y-123.2
X114.0Y-154.0
X115.9Y-125.35
X116.0Y-28.0
X116.0Y-40.0
X116.0Y-46.0
X117.0Y-70.014
X117.0Y-151.0
X117.75Y-91.694
X117.8Y-108.65
X117.85Y-93.5
X118.2Y-48.75
X118.4Y-120.95
X118.45Y-123.35
X118.7Y-97.95
X119.0Y-25.0
X119.0Y-31.0
X119.0Y-37.0
X119.0Y-43.0
X119.5Y-56.95
X121.0Y-154.0
X121.75Y-71.5
X121.75Y-79.25
X122.0Y-28.0
X122.0Y-40.0
X122.309Y-145.5
X123.249Y-58.232
X123.303Y-124.156
X124.0Y-151.0
X124.2Y-60.15
X124.25Y-116.75
X124.288Y-54.431
X124.35Y-115.0
X124.588Y-71.631
X125.0Y-25.0
X125.0Y-31.0
X125.0Y-37.0
X125.0Y-43.0
X125.0Y-77.0
X125.0Y-83.0
X125.0Y-93.5
X125.507Y-136.621
X125.588Y-60.131
X127.0Y-89.0
X128.0Y-28.0
X128.0Y-34.0
X128.0Y-40.0
X128.0Y-79.75
X128.0Y-154.0
X130.0Y-92.0
X130.37Y-82.75
X130.9Y-118.95
X131.0Y-25.0
X131.0Y-31.0
X131.0Y-37.0
X131.0Y-151.0
X131.3Y-107.25
X132.0Y-66.55
X132.488Y-93.431
X132.888Y-54.431
X133.5Y-73.75
X134.0Y-28.0
X134.0Y-34.0
X134.0Y-40.0
X134.499Y-68.949
X134.83Y-74.61
X134.95Y-67.15
X135.0Y-154.0
X135.75Y-61.175
X135.8Y-75.7
X136.75Y-121.35
X137.232Y-148.384
X137.332Y-139.984
X138.0Y-25.0
X138.0Y-31.0
X138.0Y-37.0
X138.0Y-43.0
X138.0Y-151.0
X138.75Y-53.2
X138.982Y-142.184
X139.032Y-147.184
X139.082Y-138.684
X139.125Y-133.65
X139.5Y-72.75
X140.0Y-93.5
X140.0Y-114.5
X140.0Y-126.0
X140.925Y-55.425
X141.0Y-28.0
X141.0Y-34.0
X141.0Y-40.0
X141.0Y-154.0
X141.132Y-139.334
X141.25Y-110.75
X141.8Y-121.4
X142.2Y-108.05
X142.25Y-119.0
X142.588Y-64.531
X142.95Y-67.5
X144.0Y-25.0
X144.0Y-31.0
X144.0Y-37.0
X144.0Y-43.0
X144.0Y-151.0
X144.25Y-109.5
X144.3Y-90.35
X145.25Y-103.25
X146.0Y-126.0
X146.95Y-57.55
X147.0Y-28.0
X147.0Y-34.0
X147.0Y-40.0
X147.0Y-46.0
X147.0Y-154.0
X147.426Y-66.21
X147.45Y-64.55
X150.0Y-151.0
X151.0Y-25.0
X151.0Y-31.0
X151.0Y-37.0
X151.0Y-43.0
X151.75Y-77.4
X153.0Y-148.0
X153.0Y-154.0
X154.0Y-28.0
X154.0Y-34.0
X154.0Y-40.0
X155.0Y-66.0
X155.425Y-61.675
X156.0Y-151.0
X157.0Y-25.0
X157.0Y-31.0
X157.0Y-37.0
X157.18Y-50.57
X158.0Y-59.0
X158.0Y-63.0
X158.25Y-53.75
X160.0Y-28.0
X160.0Y-34.0
X160.0Y-148.0
X160.0Y-154.0
X160.06Y-59.81
X160.562Y-36.562
X160.75Y-51.5
X162.075Y-40.925
X162.75Y-61.75
X163.0Y-25.0
X163.0Y-31.0
X163.0Y-151.0
X164.0Y-66.0
X165.25Y-43.25
X166.0Y-28.0
X166.0Y-34.0
X167.0Y-148.0
X167.0Y-154.0
X167.5Y-36.5
X169.0Y-25.0
X169.0Y-31.0
X170.0Y-151.0
X171.6Y-120.225
X172.0Y-28.0
X172.0Y-34.0
X174.0Y-58.85
X174.0Y-148.0
X174.0Y-154.0
X174.1Y-49.95
X175.0Y-37.0
X176.0Y-25.0
X176.0Y-31.0
X177.0Y-151.0
X179.0Y-28.0
X179.0Y-34.0
X179.0Y-40.14
X179.0Y-59.0
X179.0Y-65.0
X179.0Y-72.0
X179.5Y-44.25
X180.3Y-123.8
X181.0Y-142.0
X181.0Y-148.0
X181.0Y-154.0
X182.0Y-25.0
X182.0Y-31.0
X182.0Y-37.0
X182.0Y-56.0
X182.0Y-62.0
X182.0Y-69.0
X184.0Y-145.0
X184.0Y-151.0
X185.0Y-59.0
X185.0Y-65.0
X185.0Y-72.0
X186.0Y-28.0
X186.0Y-34.0
X187.0Y-142.0
X187.0Y-148.0
X187.0Y-154.0
X187.1Y-82.45
X189.0Y-25.0
X189.0Y-31.0
X189.0Y-37.0
X189.0Y-56.0
X189.0Y-62.0
X189.0Y-69.0
X190.0Y-145.0
X190.0Y-151.0
X192.0Y-28.0
X192.0Y-34.0
X192.0Y-59.0
X192.0Y-65.0
X193.0Y-142.0
X193.0Y-148.0
X193.0Y-154.0
X193.6Y-86.65
X195.0Y-25.0
X195.0Y-31.0
X195.0Y-37.0
X195.0Y-56.0
X195.0Y-62.0
X195.0Y-69.0
X195.1Y-41.3
X196.0Y-145.0
X196.0Y-151.0
X198.0Y-28.0
X198.0Y-34.0
X198.0Y-59.0
X198.0Y-65.0
X199.0Y-91.0
X199.0Y-148.0
X199.0Y-154.0
X201.0Y-25.0
X201.0Y-31.0
X201.0Y-37.0
X202.0Y-56.0
X202.0Y-62.0
X202.0Y-69.0
X202.0Y-145.0
X203.0Y-88.0
X203.0Y-94.0
X203.0Y-116.0
X204.0Y-34.0
X205.0Y-148.0
X206.0Y-59.0
X206.0Y-65.0
X207.0Y-31.0
X207.0Y-37.0
X207.0Y-91.0
X207.0Y-113.0
T4
X201.95Y-99.45
X201.95Y-103.45
X201.95Y-107.45
T5
X108.4Y-58.15
X108.4Y-60.65
X108.4Y-63.15
X108.4Y-77.75
X108.4Y-80.25
X108.4Y-82.75
X108.4Y-94.425
X108.4Y-96.925
X108.4Y-99.425
X108.4Y-110.95
X108.4Y-113.45
X108.4Y-115.95
X114.9Y-128.45
X114.9Y-130.95
X114.9Y-133.45
X117.4Y-128.45
X117.4Y-130.95
X117.4Y-133.45
T6
X191.58Y-130.75
X195.395Y-130.75
X195.395Y-137.73
X200.2Y-97.45
X200.2Y-109.45
X201.75Y-122.5
X206.2Y-97.45
X206.2Y-109.45
T7
X183.75Y-47.455
X188.75Y-47.455
T8
X109.2Y-33.75
X109.2Y-49.98
X121.9Y-33.75
X121.9Y-49.98
T9
X191.58Y-126.94
X191.58Y-134.56
T10
X111.7Y-55.65
X111.7Y-65.65
X111.7Y-75.25
X111.7Y-85.25
X111.7Y-91.925
X111.7Y-101.925
X111.7Y-108.45
X111.7Y-118.45
T11
X107.75Y-25.75
X107.75Y-153.75
X205.75Y-25.75
X205.75Y-153.75
T3
G00X190.675Y-73.15
M15
G01X192.525Y-73.15
M16
G05
G00X190.675Y-84.85
M15
G01X192.525Y-84.85
M16
G05
T5
G00X107.234Y-142.884
M15
G01X107.234Y-141.884
M16
G05
G00X109.634Y-140.884
M15
G01X109.634Y-139.884
M16
G05
G00X115.134Y-140.884
M15
G01X115.134Y-139.884
M16
G05
G00X197.9Y-48.5
M15
G01X197.9Y-46.5
M16
G05
G00X203.9Y-48.15
M15
G01X203.9Y-46.85
M16
G05
G00X204.15Y-43.0
M15
G01X205.65Y-43.0
M16
G05
G00X204.15Y-52.0
M15
G01X205.65Y-52.0
M16
G05
T0
M30
